<svg width="41" height="60" viewBox="0 0 41 60" fill="none" xmlns="http://www.w3.org/2000/svg">
<path d="M30.18 20.31V21.27H30.35C30.69 21.27 31.1 21.27 31.57 21.27C32.04 21.27 32.5 21.33 32.93 21.44C33.36 21.55 33.72 21.73 34.01 21.98C34.29 22.23 34.44 22.59 34.44 23.09C34.44 23.28 34.42 23.52 34.38 23.8C34.34 24.08 34.25 24.53 34.1 25.13C33.95 25.73 33.71 26.56 33.39 27.6C33.07 28.64 32.62 30.03 32.06 31.77C31.49 33.51 30.79 35.65 29.96 38.18C29.13 40.71 28.11 43.78 26.9 47.37L22.49 32.78C23.07 32.42 23.64 32.04 24.17 31.6C25.78 30.26 27.05 28.46 27.99 26.22C28.93 23.98 29.39 21.18 29.39 17.82C29.39 14.39 28.89 11.53 27.91 9.23C26.92 6.93 25.59 5.1 23.91 3.74C22.23 2.38 20.28 1.42 18.05 0.85C15.8 0.28 13.45 0 10.98 0H0V0.95H3.02V34.46H0V35.36H11.66C13.21 35.36 14.69 35.23 16.12 34.99L24.1 59.63L35.23 25.7C35.57 24.64 35.85 23.81 36.08 23.2C36.31 22.6 36.57 22.15 36.87 21.87C37.17 21.59 37.57 21.42 38.06 21.36C38.55 21.3 39.25 21.28 40.16 21.28H40.61V20.32H30.18V20.31ZM10.6 0.9C12.69 0.9 14.5 1.32 16.04 2.15C17.58 2.98 18.85 4.13 19.86 5.6C20.87 7.07 21.62 8.81 22.11 10.82C22.6 12.83 22.85 15.03 22.85 17.39C22.85 20.29 22.62 22.81 22.16 24.95C21.9 26.15 21.54 27.23 21.09 28.2L19 21.28H22.63V20.32H9.28V0.95L10.6 0.9ZM9.28 34.46V21.28H11.68L15.62 33.46C13.9 34.12 11.79 34.46 9.28 34.46Z" fill="black"/>
</svg>
